name D:\school\WTK\thesis\model\3dpredictsim\Results\test_WL_v2\Fal_s1_bCst_PF_Natali2010_ls135_k150_Mmtp_ig24_v3.mot
datacolumns 128
datarows 4
range 0.00000000 0.03474485
endheader
time	pelvis_tilt	pelvis_list	pelvis_rotation	pelvis_tx	pelvis_ty	pelvis_tz	hip_flexion_l	hip_adduction_l	hip_rotation_l	hip_flexion_r	hip_adduction_r	hip_rotation_r	knee_angle_l	knee_angle_r	ankle_angle_l	ankle_angle_r	subtalar_angle_l	subtalar_angle_r	tmt_angle_l	tmt_angle_r	mtp_angle_l	mtp_angle_r	lumbar_extension	lumbar_bending	lumbar_rotation	arm_flex_l	arm_add_l	arm_rot_l	arm_flex_r	arm_add_r	arm_rot_r	elbow_flex_l	elbow_flex_r	pro_sup_l	pro_sup_r	glut_med1_l/activation	glut_med2_l/activation	glut_med3_l/activation	glut_min1_l/activation	glut_min2_l/activation	glut_min3_l/activation	semimem_l/activation	semiten_l/activation	bifemlh_l/activation	bifemsh_l/activation	sar_l/activation	add_long_l/activation	add_brev_l/activation	add_mag1_l/activation	add_mag2_l/activation	add_mag3_l/activation	tfl_l/activation	pect_l/activation	grac_l/activation	glut_max1_l/activation	glut_max2_l/activation	glut_max3_l/activation	iliacus_l/activation	psoas_l/activation	quad_fem_l/activation	gem_l/activation	peri_l/activation	rect_fem_l/activation	vas_med_l/activation	vas_int_l/activation	vas_lat_l/activation	med_gas_l/activation	lat_gas_l/activation	soleus_l/activation	tib_post_l/activation	flex_dig_l/activation	flex_hal_l/activation	tib_ant_l/activation	per_brev_l/activation	per_long_l/activation	per_tert_l/activation	ext_dig_l/activation	ext_hal_l/activation	ercspn_l/activation	intobl_l/activation	extobl_l/activation	glut_med1_r/activation	glut_med2_r/activation	glut_med3_r/activation	glut_min1_r/activation	glut_min2_r/activation	glut_min3_r/activation	semimem_r/activation	semiten_r/activation	bifemlh_r/activation	bifemsh_r/activation	sar_r/activation	add_long_r/activation	add_brev_r/activation	add_mag1_r/activation	add_mag2_r/activation	add_mag3_r/activation	tfl_r/activation	pect_r/activation	grac_r/activation	glut_max1_r/activation	glut_max2_r/activation	glut_max3_r/activation	iliacus_r/activation	psoas_r/activation	quad_fem_r/activation	gem_r/activation	peri_r/activation	rect_fem_r/activation	vas_med_r/activation	vas_int_r/activation	vas_lat_r/activation	med_gas_r/activation	lat_gas_r/activation	soleus_r/activation	tib_post_r/activation	flex_dig_r/activation	flex_hal_r/activation	tib_ant_r/activation	per_brev_r/activation	per_long_r/activation	per_tert_r/activation	ext_dig_r/activation	ext_hal_r/activation	ercspn_r/activation	intobl_r/activation	extobl_r/activation	
          0.00000000	         -2.92737067	         -2.51509270	          5.57027966	          0.00000000	          0.91913853	         -0.00223332	        -16.40355464	         -0.94007287	          7.67500293	         29.80708115	          3.61196649	         -3.61355179	         -9.56417908	        -11.40966427	         -0.30001414	          8.29678558	          4.63092745	         -4.53562390	          1.40225982	         -3.27038105	         11.17257088	         -1.30441936	         -2.33841816	          0.65222466	         -2.07540028	          4.63643948	        -13.45257848	         16.12974733	         -4.60555418	        -13.45956540	          6.66232340	         37.68035464	         16.22941581	         86.51662706	         86.51662706	          0.34041433	          0.08728358	          0.05575296	          0.31848699	          0.18505712	          0.09968312	          0.05000084	          0.05000017	          0.05000013	          0.05483404	          0.10119559	          0.05000010	          0.05000010	          0.05000014	          0.05000048	          0.05000047	          0.28495415	          0.05000041	          0.05000025	          0.05000285	          0.05000177	          0.05000074	          0.42606964	          0.58398353	          0.05000011	          0.05000048	          0.05000010	          0.29278449	          0.05965300	          0.05658575	          0.06299424	          0.26822239	          0.36461691	          0.31117346	          0.30610999	          0.28307710	          0.33622454	          0.05000001	          0.07116553	          0.12864136	          0.05000014	          0.05000005	          0.05000018	          0.05000000	          0.05000001	          0.05000004	          0.05965136	          0.05965113	          0.05965103	          0.05000056	          0.05000084	          0.05010328	          0.22856624	          0.05965176	          0.08838444	          0.05000030	          0.05000018	          0.10605108	          0.19840922	          0.17388294	          0.17555717	          0.09729984	          0.05965118	          0.05000167	          0.13652271	          0.05965263	          0.07362698	          0.10439349	          0.05000006	          0.05000007	          0.27228342	          0.05088054	          0.05349863	          0.05000004	          0.06364353	          0.06451623	          0.05488598	          0.05965134	          0.05965135	          0.05965134	          0.05075413	          0.05000053	          0.05000087	          0.48349154	          0.29573024	          0.18602805	          0.08383080	          0.49759988	          0.05000014	          0.05414372	          0.12991090	          0.10728705	
          0.01158162	         -2.93007147	         -2.59577470	          5.86645486	          0.01764053	          0.91839539	         -0.00204784	        -16.44738549	         -1.26407216	          7.50951450	         29.15737229	          4.01401782	         -3.44074419	        -11.14398384	        -11.48092009	         -0.92270949	          7.65360822	          5.68834522	         -4.97566678	          0.14216229	         -3.33085425	         13.97770039	         -1.22570422	         -2.12071958	          0.83399089	         -2.17142090	          4.30929848	        -13.46449246	         16.49594449	         -5.54353362	        -13.45185802	          6.39772509	         38.90653005	         15.84774191	         86.51662706	         86.51662706	          0.28533676	          0.07316146	          0.05000009	          0.26695720	          0.15511567	          0.08355483	          0.05000162	          0.05000027	          0.05000026	          0.05000036	          0.08482276	          0.12273468	          0.09509792	          0.05000431	          0.05000206	          0.05000128	          0.23884980	          0.10045650	          0.05000187	          0.05000089	          0.05000053	          0.05000048	          0.35713338	          0.51848065	          0.05000012	          0.05000115	          0.05965124	          0.24541321	          0.05000165	          0.20547961	          0.18480274	          0.22482509	          0.30562337	          0.26082685	          0.26174300	          0.24169302	          0.31822149	          0.05000000	          0.05965130	          0.10782777	          0.05000008	          0.08274541	          0.05000011	          0.05000002	          0.07886130	          0.06984815	          0.05000003	          0.05000005	          0.05000013	          0.05000008	          0.05000008	          0.05000008	          0.19158518	          0.05000038	          0.07408422	          0.05000045	          0.05965210	          0.10144239	          0.26799924	          0.29465188	          0.16844695	          0.08155725	          0.05000005	          0.07118454	          0.11443458	          0.05000121	          0.06171453	          0.13365000	          0.06692118	          0.07116528	          0.58934971	          0.23210390	          0.24172097	          0.08490248	          0.19135262	          0.19079764	          0.16379957	          0.05000001	          0.05000002	          0.05000000	          0.05698794	          0.05000066	          0.05000065	          0.56143674	          0.24788244	          0.21288606	          0.23256473	          0.51787862	          0.05965236	          0.05000001	          0.10889185	          0.08992844	
          0.02316324	         -2.92979064	         -2.67664391	          6.13248423	          0.03565579	          0.91761379	         -0.00188649	        -16.48782875	         -1.59389298	          7.32854012	         28.35939876	          4.31811810	         -3.19063197	        -12.70903217	        -11.87063493	         -1.67485478	          7.08865480	          6.74936230	         -5.41675110	         -1.29864619	         -3.52507466	         17.07681870	         -1.09982947	         -1.87817583	          1.02378354	         -2.25616317	          3.89398574	        -13.47629724	         16.78671262	         -6.52223548	        -13.45043732	          6.17399020	         40.11415235	         15.52206234	         86.51662706	         86.51662706	          0.38539350	          0.06132425	          0.05000019	          0.22376475	          0.13001862	          0.07003604	          0.05000151	          0.05000042	          0.05000026	          0.05000012	          0.07109896	          0.15610091	          0.14228149	          0.05965193	          0.05965105	          0.05965078	          0.20020499	          0.08440942	          0.05000261	          0.05001579	          0.05005250	          0.05965044	          0.29982365	          0.52131200	          0.05690190	          0.05000096	          0.05000006	          0.20570636	          0.14312752	          0.17223412	          0.15490263	          0.18844930	          0.25617474	          0.21862611	          0.21939407	          0.20258820	          0.26673467	          0.06224532	          0.05000008	          0.13656757	          0.05000008	          0.20443273	          0.05000026	          0.05340257	          0.06610187	          0.06017903	          0.30074845	          0.05000021	          0.17936112	          0.05000025	          0.05000023	          0.31609935	          0.18367704	          0.09973572	          0.08912122	          0.05000007	          0.05000081	          0.08502948	          0.22463812	          0.24697847	          0.14119308	          0.10983137	          0.05000100	          0.05966774	          0.09592020	          0.05000023	          0.05172946	          0.11202601	          0.05965126	          0.05965120	          0.49399531	          0.19455045	          0.20781775	          0.07116560	          0.16039257	          0.15992738	          0.13729749	          0.05695582	          0.05784779	          0.05613701	          0.05000003	          0.05000028	          0.05000028	          0.54059567	          0.37012994	          0.18048384	          0.19493674	          0.59182733	          0.05000086	          0.05000000	          0.13494401	          0.07537839	
          0.03474485	         -2.92852050	         -2.76036797	          6.35884082	          0.05383668	          0.91681024	         -0.00172532	        -16.49436252	         -1.92566968	          7.14418515	         27.44808951	          4.56068400	         -2.93557636	        -14.29435471	        -12.20989424	         -2.55205821	          6.55351258	          7.80063576	         -5.86308539	         -2.87631211	         -3.45846562	         20.41534668	         -0.91946126	         -1.63218334	          1.22689730	         -2.33081057	          3.41892808	        -13.49027221	         17.01031644	         -7.48939150	        -13.45595234	          6.00890861	         41.29340150	         15.21883652	         86.51662706	         86.51662706	          0.33203557	          0.05140226	          0.05000002	          0.33086056	          0.10898219	          0.05870456	          0.05000119	          0.05000011	          0.05000009	          0.05000037	          0.05965183	          0.14133835	          0.11926104	          0.05000069	          0.05000051	          0.05000033	          0.16781277	          0.07076038	          0.05000031	          0.05000047	          0.05000027	          0.05000017	          0.25131349	          0.49302927	          0.05000003	          0.05000021	          0.05000013	          0.17242393	          0.17192334	          0.16884664	          0.14185452	          0.15795896	          0.21472670	          0.18325329	          0.18389702	          0.16981028	          0.22357811	          0.15282335	          0.13600703	          0.12084279	          0.08630615	          0.29840530	          0.05000015	          0.07491239	          0.05540685	          0.05044231	          0.35527512	          0.30649765	          0.36153143	          0.15660586	          0.26497189	          0.26495634	          0.15395886	          0.08359915	          0.07470182	          0.08007907	          0.05000292	          0.07127207	          0.18829260	          0.20701843	          0.11834876	          0.14363340	          0.05000030	          0.05001394	          0.08040101	          0.22094960	          0.16354005	          0.12600826	          0.05000005	          0.05000006	          0.41406889	          0.16307304	          0.17419432	          0.05965131	          0.13444198	          0.13405265	          0.11508356	          0.05000029	          0.05000085	          0.05000007	          0.05000018	          0.05000026	          0.05000028	          0.64309098	          0.38724689	          0.20541773	          0.44629012	          0.55205739	          0.27171330	          0.07642178	          0.11311067	          0.06318247	
